0
SECTION
2
HEADER
9
$ACADVER
1
AC1015
9
$INSUNITS
70
4
0
ENDSEC
0
SECTION
2
ENTITIES
0
LINE
8
WALL-OUTER
10
0
20
0
11
8000
21
0
0
LINE
8
WALL-OUTER
10
8000
20
0
11
8000
21
6000
0
LINE
8
WALL-OUTER
10
8000
20
6000
11
0
21
6000
0
LINE
8
WALL-OUTER
10
0
20
6000
11
0
21
0
0
LINE
8
WALL-INNER
10
4000
20
0
11
4000
21
2500
0
LINE
8
WALL-INNER
10
4000
20
3500
11
4000
21
6000
0
LINE
8
WALL-INNER
10
0
20
3000
11
3200
21
3000
0
LINE
8
WALL-INNER
10
4800
20
3000
11
8000
21
3000
0
LINE
8
DOOR
10
4000
20
2500
11
4800
21
3000
0
LINE
8
WINDOW
10
1800
20
6000
11
3200
21
6000
0
LINE
8
WINDOW
10
5200
20
6000
11
6600
21
6000
0
TEXT
8
TEXT
10
1600
20
1500
40
300
1
ROOM 101
0
TEXT
8
TEXT
10
5200
20
1500
40
300
1
ROOM 102
0
TEXT
8
TEXT
10
1600
20
4500
40
300
1
ROOM 103
0
TEXT
8
TEXT
10
5200
20
4500
40
300
1
ROOM 104
0
ENDSEC
0
